# xmcd
#
# Track frame offsets: 
#        150
#        16565
#        32257
#        47812
#        66632
#        78870
#        99047
#        112395
#        128750
#        147435
#
# Disc length: 2195 seconds
#
# Revision: 1
# Processed by: cddbd v1.5.2PL0 Copyright (c) Steve Scherf et al.
# Submitted via: ExactAudioCopyFreeDBPlugin 1.0
#
DISCID=7c08910a
DTITLE=Hot Shots - Showtime
DYEAR=1900
DGENRE=Blues
TTITLE0=Machines don't funk but people do
TTITLE1=Here I am
TTITLE2=All I wan't is what belongs to me
TTITLE3=Funky Broadway
TTITLE4=Grits ain't Groceries
TTITLE5=On and on
TTITLE6=You're sure taking care of me
TTITLE7=Toga woman
TTITLE8=Don't leave me this way
TTITLE9=Wanna know
EXTD=
EXTT0=
EXTT1=
EXTT2=
EXTT3=
EXTT4=
EXTT5=
EXTT6=
EXTT7=
EXTT8=
EXTT9=
PLAYORDER=
